<?xml version="1.0" ?><!DOCTYPE svg  PUBLIC '-//W3C//DTD SVG 1.1//EN'  'http://www.w3.org/Graphics/SVG/1.1/DTD/svg11.dtd'><svg enable-background="new 0 0 24 24" height="24px" id="Layer_1" version="1.1" viewBox="0 0 24 24" width="24px" xml:space="preserve" xmlns="http://www.w3.org/2000/svg" xmlns:xlink="http://www.w3.org/1999/xlink"><path d="M17.7,6.3c-1.1-2.2-1.3-4.5-0.3-6.3h-2.2c-0.6,1.6-0.6,3.5,0,5.2C12.2,4.4,9.2,4.9,7,7.1s-2.7,5.2-1.8,8.1  c-1.8-0.5-3.6-0.5-5.2,0v2.2c1.9-1,4.1-0.8,6.3,0.3c1.1,2.2,1.3,4.5,0.3,6.3h2.2c0.6-1.6,0.6-3.5,0-5.2c2.9,0.9,5.9,0.4,8.1-1.8  s2.7-5.2,1.8-8.1c1.8,0.5,3.6,0.5,5.2,0V6.7C22.1,7.7,19.9,7.5,17.7,6.3z M16.2,7.8c0.5,1,0.8,2,0.9,3l-3.9-3.9  C14.3,7,15.2,7.3,16.2,7.8z M7.8,16.2c-0.5-1.1-0.9-2.1-1-3.2l4.1,4.1C9.9,17.1,8.8,16.8,7.8,16.2z M13.5,16.9  c0.3-0.1,0.6-0.3,0.9-0.4C14,16.6,13.8,16.8,13.5,16.9z M14.4,16.4L7.6,9.6c-0.2,0.3-0.3,0.6-0.5,1l6.3,6.3  c-0.4,0.1-0.8,0.2-1.1,0.3l-5.4-5.4c0,0.2,0,0.4-0.1,0.6c0-1.4,0.6-2.7,1.7-3.9C8.4,8.6,8.3,8.7,8.2,8.8l7,7  C14.9,16,14.7,16.2,14.4,16.4z M15.9,15.1l-7-7c0.3-0.2,0.5-0.4,0.8-0.6l6.8,6.8C16.3,14.6,16.1,14.8,15.9,15.1z M16.9,13.3  l-6.2-6.2c0.4-0.1,0.8-0.2,1.2-0.3l5.3,5.3C17.1,12.5,17,12.9,16.9,13.3z"/></svg>